<?xml version="1.0" encoding="UTF-8"?>
<svg id="_图层_1" data-name="图层 1" xmlns="http://www.w3.org/2000/svg" viewBox="0 0 16.41 16.41">
  <g id="icon-5">
    <path d="m0,8.2c0,4.54,3.67,8.21,8.2,8.21s8.21-3.67,8.21-8.21S12.73,0,8.2,0,0,3.68,0,8.2Z" style="fill: #000; stroke-width: 0px;"/>
    <path d="m8.2,2.62c-3.08,0-5.58,2.5-5.58,5.58s2.5,5.59,5.58,5.59,5.59-2.5,5.59-5.59c0-3.07-2.5-5.58-5.59-5.58Zm2.44,2.07c.32-.32.84-.32,1.17,0s.32.84,0,1.17-.84.32-1.17,0-.32-.85,0-1.17Zm-2.43-1.49c.45,0,.82.37.82.82s-.37.82-.82.82-.82-.37-.82-.82.36-.82.82-.82Zm-3.6,1.49c.32-.32.84-.32,1.17,0s.32.84,0,1.17-.84.32-1.17,0-.33-.85,0-1.17Zm-.67,4.42c-.46,0-.82-.37-.82-.82,0-.46.37-.82.82-.82s.82.37.82.82-.37.82-.82.82Zm1.83,2.78c-.32.32-.84.32-1.17,0-.32-.32-.32-.84,0-1.17s.84-.32,1.17,0,.32.85,0,1.17Zm2.44,1.49c-.45,0-.82-.37-.82-.82s.37-.82.82-.82.82.37.82.82-.37.82-.82.82Zm-.01-2.25c-1.61,0-2.91-1.31-2.91-2.92s1.3-2.91,2.91-2.91,2.92,1.31,2.92,2.91c0,1.61-1.31,2.92-2.92,2.92Zm3.61.76c-.32.32-.84.32-1.17,0-.32-.32-.32-.84,0-1.17s.84-.32,1.17,0,.32.85,0,1.17Zm.66-2.78c-.45,0-.82-.37-.82-.82,0-.46.37-.82.82-.82.46,0,.82.37.82.82.01.45-.36.82-.82.82Z" style="fill: #fff; stroke-width: 0px;"/>
  </g>
</svg>