<?xml version="1.0" encoding="UTF-8"?>
<svg id="_图层_1" data-name="图层 1" xmlns="http://www.w3.org/2000/svg" viewBox="0 0 21.76 21.76">
  <g id="icon-4">
    <path d="m10.88.25C5.01.25.25,5,.25,10.87s4.76,10.64,10.63,10.64,10.63-4.76,10.63-10.64S16.76.25,10.88.25Z" style="fill: none; stroke: #000; stroke-linecap: round; stroke-miterlimit: 10; stroke-width: .5px;"/>
    <g>
      <path d="m3.67,10.34h14.42c.35,0,.64.29.64.64h0c0,.35-.29.64-.64.64H3.67c-.35,0-.64-.29-.64-.64h0c0-.36.29-.64.64-.64Z" style="fill: #000; stroke-width: 0px;"/>
      <g>
        <path d="m5.5,9.29l2.15-.99c.05-.02.08-.07.09-.12,0-.06-.02-.11-.06-.14l-.54-.38c.97-1.08,2.33-1.69,3.75-1.69,2.15,0,4.07,1.38,4.79,3.44l.02.05h.84l-.03-.1c-.77-2.51-3.03-4.19-5.62-4.19-1.68,0-3.29.73-4.42,2.02l-.69-.49c-.04-.03-.1-.03-.15-.01-.05.02-.08.07-.09.13l-.22,2.36c0,.05.02.09.06.12.02.01.08.01.12-.01Z" style="fill: #000; stroke-width: 0px;"/>
        <path d="m16.32,12.48l-2.15.99c-.05.02-.08.07-.09.12,0,.06.02.11.06.14l.54.38c-.97,1.08-2.33,1.69-3.75,1.69-2.15,0-4.07-1.38-4.79-3.44l-.02-.05h-.84l.03.1c.77,2.51,3.03,4.19,5.62,4.19,1.68,0,3.29-.73,4.42-2.02l.69.49c.04.03.1.04.15.01.05-.02.08-.07.09-.12l.22-2.36c0-.05-.02-.09-.05-.12-.04-.02-.09-.02-.13,0Z" style="fill: #000; stroke-width: 0px;"/>
      </g>
    </g>
  </g>
</svg>