<?xml version="1.0" encoding="UTF-8"?>
<svg id="_图层_1" data-name="图层 1" xmlns="http://www.w3.org/2000/svg" viewBox="0 0 19.84 19.85">
  <g id="icon-5" transform="rotate(90) translate(0 -19.84)">
    <path d="m0,9.92c0,5.49,4.44,9.93,9.91,9.93s9.93-4.44,9.93-9.93S15.39,0,9.91,0C4.43.01,0,4.45,0,9.92Z" style="fill: #000; stroke-width: 0px;"/>
    <g>
      <path d="m3.99,9.93c0,3.5,2.83,6.33,6.33,6.33s6.33-2.84,6.33-6.33-2.83-6.33-6.33-6.33-6.33,2.83-6.33,6.33Zm11.46,0c0,2.83-2.3,5.13-5.13,5.13s-5.13-2.3-5.13-5.13,2.3-5.13,5.13-5.13,5.13,2.29,5.13,5.13Z" style="fill: #fff; stroke-width: 0px;"/>
      <rect x="3.287" y="8.792" width="1.13" height="2.27" style="fill: #fff; stroke-width: 0px;"/>
      <path d="m2.84,8.09v3.67c0,.13.1.23.23.23h.44c.13,0,.23-.1.23-.23v-3.67c0-.13-.1-.23-.23-.23h-.44c-.13,0-.23.11-.23.23Z" style="fill: #fff; stroke-width: 0px;"/>
      <path d="m6.54,9.79h0c0,.17-.14.32-.31.32h-.69c-.17,0-.31-.14-.31-.32h0c0-.17.14-.32.31-.32h.7c.16,0,.3.14.3.32Z" style="fill: #fff; stroke-width: 0px;"/>
      <path d="m15.35,9.79h0c0,.17-.14.32-.32.32h-.69c-.17,0-.32-.14-.32-.32h0c0-.17.14-.32.32-.32h.7c.169,0,.31.14.31.32Z" style="fill: #fff; stroke-width: 0px;"/>
      <path d="m10.32,15.09h0c-.17,0-.32-.14-.32-.32v-.69c0-.17.14-.32.32-.32h0c.17,0,.31.14.31.32v.69c0,.18-.14.32-.31.32Z" style="fill: #fff; stroke-width: 0px;"/>
      <path d="m10.32,6.12h0c-.17,0-.32-.14-.32-.32v-.7c0-.17.14-.32.32-.32h0c.17,0,.31.14.31.32v.69c0,.19-.14.33-.31.33Z" style="fill: #fff; stroke-width: 0px;"/>
      <circle cx="10.3" cy="9.78" r=".98" style="fill: #fff; stroke-width: 0px;"/>
      <path d="m7.14,12.37c.88-1.08,1.89-2,2.94-2.87,1.06-.86,2.16-1.67,3.39-2.32-.88,1.08-1.89,2-2.94,2.87-1.07.86-2.16,1.68-3.39,2.32Z" style="fill: #fff; stroke-width: 0px;"/>
    </g>
  </g>
</svg>