<?xml version="1.0" encoding="UTF-8"?>
<svg id="_图层_1" data-name="图层 1" xmlns="http://www.w3.org/2000/svg" viewBox="0 0 17 16.38">
  <g id="icon-3">
    <ellipse cx="8.5" cy="8.19" rx="8.5" ry="8.19" style="fill: #000; stroke-width: 0px;"/>
    <g>
      <g>
        <path d="m13.93,9.02c-.17,0-.3-.13-.3-.29,0-2.84-2.4-5.15-5.35-5.15-.17,0-.3-.13-.3-.29s.14-.29.3-.29c3.29,0,5.96,2.57,5.96,5.74,0,.15-.14.28-.31.28Z" style="fill: #fff; stroke-width: 0px;"/>
        <path d="m11.44,8.78c-.17,0-.3-.13-.3-.29,0-.21-.02-.41-.07-.61-.29-1.12-1.33-1.9-2.53-1.9-.17,0-.31-.13-.31-.29,0-.15.12-.27.29-.29h0c1.5,0,2.78.97,3.14,2.35.06.24.09.49.09.75-.01.15-.15.28-.31.28Z" style="fill: #fff; stroke-width: 0px;"/>
      </g>
      <g>
        <path d="m4.82,9.56l2.5,2.41h3.27c.68,0,1.02-.79.55-1.26l-5-4.92c-.48-.47-1.32-.15-1.32.52v3.25Z" style="fill: #fff; stroke-width: 0px;"/>
        <path d="m6.49,12.78l-.13.12c-.67.64-1.75.64-2.42,0h0c-.67-.64-.67-1.69,0-2.33l.13-.12,2.42,2.33Z" style="fill: #fff; stroke-width: 0px;"/>
      </g>
    </g>
  </g>
</svg>