<?xml version="1.0" encoding="UTF-8"?>
<svg id="_图层_1" data-name="图层 1" xmlns="http://www.w3.org/2000/svg" viewBox="0 0 47.47 47.46">
  <g id="icon-7">
    <path d="m0,23.73c0,13.1,10.62,23.73,23.73,23.73s23.74-10.63,23.74-23.73S36.84,0,23.73,0C10.62-.01,0,10.62,0,23.73Z" style="fill: #000; stroke-width: 0px;"/>
    <path d="m28.12,30.23c0-.67.54-1.21,1.21-1.21s1.21.54,1.21,1.21-.54,1.21-1.21,1.21-1.21-.54-1.21-1.21Z" style="fill: #fff; stroke-width: 0px;"/>
    <path d="m20.4,32.73c-.37-.37-.37-.97,0-1.34s.97-.37,1.34,0,.37.97,0,1.34c-.37.36-.97.36-1.34,0Z" style="fill: #fff; stroke-width: 0px;"/>
    <polygon points="29.51 38.8 28.36 37.47 27.21 36.14 26.05 37.47 24.9 38.8 26.51 38.8 26.51 42.83 27.9 42.83 27.9 38.8 29.51 38.8" style="fill: #fff; stroke-width: 0px;"/>
    <polygon points="27.21 6.78 26.05 5.45 24.9 4.12 23.75 5.45 22.59 6.78 24.2 6.78 24.2 10.81 25.6 10.81 25.6 6.78 27.21 6.78" style="fill: #fff; stroke-width: 0px;"/>
    <path d="m24.9,24.65c.67,0,1.22.55,1.22,1.22s-.55,1.22-1.22,1.22-1.22-.55-1.22-1.22.54-1.22,1.22-1.22Z" style="fill: #fff; stroke-width: 0px;"/>
    <circle cx="20.64" cy="14.54" r="1.43" style="fill: #fff; stroke-width: 0px;"/>
    <circle cx="28.02" cy="16.92" r="1.9" style="fill: #fff; stroke-width: 0px;"/>
    <polygon points="17.13 12.25 13.5 19.64 36.9 19.64 32.6 12.25 30.97 12.25 23.01 12.2 17.13 12.25" style="fill: none; stroke: #fff; stroke-linecap: round; stroke-linejoin: round; stroke-width: 2.3px;"/>
    <path d="m22.87,19.64l9,.05h1.85l4.04,6.76c.36.6-.06,1.37-.74,1.37H13.56c-.65,0-1.07-.72-.77-1.31l3.44-6.81h6.65" style="fill: #fff; stroke-width: 0px;"/>
    <polyline points="23.01 27.24 30.97 27.28 32.6 27.28 36.9 34.68 13.5 34.68 17.13 27.28 23.01 27.28" style="fill: none; stroke: #fff; stroke-linecap: round; stroke-linejoin: round; stroke-width: 2.3px;"/>
    <polygon points="23.38 23.06 22.23 21.73 21.07 20.39 19.92 21.72 18.76 23.05 20.37 23.05 20.37 27.09 21.77 27.09 21.77 23.06 23.38 23.06" style="fill: #000; stroke-width: 0px;"/>
  </g>
</svg>