<svg xmlns="http://www.w3.org/2000/svg" viewBox="0 0 488.8 488.8"><defs><style>.cls-1{fill:#82e600;}.cls-2,.cls-3{fill:#fff;}.cls-2{fill-rule:evenodd;}.cls-4{fill:none;stroke:#fff;stroke-miterlimit:10;}</style></defs><g id="图层_2" data-name="图层 2"><g id="图层_1-2" data-name="图层 1"><circle class="cls-1" cx="244.4" cy="244.4" r="244.4"/><path class="cls-2" d="M211,51.38a7.58,7.58,0,0,1,1.86.24,15.07,15.07,0,0,1,3.34-4.1,12.36,12.36,0,0,0-5.2-1.14A12.52,12.52,0,0,0,198.52,58.9V59h0V71.41h5V59h0V58.9A7.52,7.52,0,0,1,211,51.38Z"/><path class="cls-2" d="M243.57,41.37a5,5,0,1,1-5,5,5,5,0,0,1,5-5"/><path class="cls-2" d="M243.56,53.64a7.25,7.25,0,0,1-3.73-1l3.73,18.8,3.71-18.79A7.27,7.27,0,0,1,243.56,53.64Z"/><path class="cls-2" d="M183.51,46.38A12.51,12.51,0,1,1,171,58.89a12.51,12.51,0,0,1,12.52-12.51m0,5a7.51,7.51,0,1,0,7.5,7.51,7.52,7.52,0,0,0-7.5-7.51"/><path class="cls-2" d="M226.05,46.38a12.51,12.51,0,0,1,12.51,12.51V71.4h-5V68.9a12.51,12.51,0,1,1-7.51-22.52m0,5a7.51,7.51,0,1,0,7.51,7.51,7.52,7.52,0,0,0-7.51-7.51"/><path class="cls-2" d="M303.64,46.38a12.51,12.51,0,1,1-12.52,12.51,12.52,12.52,0,0,1,12.52-12.51m0,5a7.51,7.51,0,1,0,7.5,7.51,7.51,7.51,0,0,0-7.5-7.51"/><path class="cls-2" d="M261.1,46.38a12.34,12.34,0,0,1,7.49,2.51,12.51,12.51,0,0,1,20,10V71.41h-5V58.9a7.51,7.51,0,0,0-7.51-7.51,7.43,7.43,0,0,0-5,1.92V71.42h-5V53.31a7.51,7.51,0,0,0-12.52,5.59V71.41h-5V58.9A12.51,12.51,0,0,1,261.1,46.38"/><circle class="cls-3" cx="244.44" cy="244.4" r="34.21"/><path class="cls-3" d="M159,241.37V277H142.44V211.84H156.6L183,247.43V211.84h16.56V277H185.4Z"/><path class="cls-3" d="M328.14,277V234.65l-9.93,8.19L307.72,230l22.17-18.12H344.7V277Z"/><circle class="cls-3" cx="294.2" cy="268.23" r="8.74"/><circle class="cls-1" cx="244.44" cy="244.4" r="17.66"/><path class="cls-3" d="M244.44,203.23a41.07,41.07,0,0,1,19.88,5.11c1.11-4.47,4.4-16.65,9.71-26.42l-11.39,6.45a6.64,6.64,0,0,1,.33,2.1,6.83,6.83,0,1,1-10.39-5.82,43.78,43.78,0,0,1-4.05-5.86,50,50,0,0,1-4.1-8.84,50,50,0,0,1-4.1,8.84,42.68,42.68,0,0,1-4.05,5.86,6.82,6.82,0,1,1-10.39,5.82,6.94,6.94,0,0,1,.33-2.1l-11.39-6.45c5.31,9.77,8.6,22,9.71,26.42A41.23,41.23,0,0,1,244.44,203.23Z"/><path class="cls-3" d="M198.06,144.22l7.08,16.28h-1.93l-1.79-4.28H193.1l-1.79,4.28h-1.93l7.08-16.28Zm-4.35,10.49h7.06l-3.52-8.55Z"/><path class="cls-3" d="M218.32,144.22v1.52h-8.16v5.54h7.59v1.52h-7.59v7.7H208.5V144.22Z"/><path class="cls-3" d="M227.57,144.22c3.22,0,5.24,1.49,5.24,4.35,0,2.3-1.47,4-4.14,4.21l4.67,7.73h-2l-4.46-7.57H224.1v7.57h-1.66V144.23h5.13Zm-.41,7.2c2.46,0,3.86-1,3.86-2.85s-1.47-2.83-3.86-2.83H224.1v5.68Z"/><path class="cls-3" d="M238.89,144.22V160.5h-1.66V144.22Z"/><path class="cls-3" d="M257.47,146.38,256,147.46a5.45,5.45,0,0,0-4.19-2.14c-4,0-6.69,3.1-6.69,7s2.76,7,6.69,7A5.22,5.22,0,0,0,256.5,157l1.36,1a7.22,7.22,0,0,1-6,3,8.55,8.55,0,0,1,0-17.1A7,7,0,0,1,257.47,146.38Z"/><path class="cls-3" d="M268.28,144.22l7.08,16.28h-1.93l-1.79-4.28h-8.32l-1.79,4.28H259.6l7.08-16.28Zm-4.35,10.49H271l-3.52-8.55Z"/><path class="cls-3" d="M278.81,144.22h1.38v5.4h-1.38Z"/><path class="cls-3" d="M295,145.79l-1.45,1.13a3.55,3.55,0,0,0-3.15-1.59c-2,0-3.47,1.13-3.47,2.94,0,1.5,1,2.37,3,3,3,1,5.33,1.75,5.36,4.9,0,2.71-2.48,4.74-5.38,4.74a6.17,6.17,0,0,1-5.11-2.42l1.5-1.08a4.07,4.07,0,0,0,3.68,2c1.84,0,3.52-1.22,3.52-3,0-1.59-.85-2.46-3.36-3.22-2.78-.87-5-1.66-5-4.78,0-2.87,2.32-4.62,5.27-4.62A5.56,5.56,0,0,1,295,145.79Z"/><path class="cls-3" d="M53.38,314.32v1.52H44.94v5.54h7.89v1.52H44.94v6.19h8.71v1.52H43.28V314.33h10.1Z"/><path class="cls-3" d="M64.56,314.32l7.08,16.28H69.71l-1.79-4.28H59.6l-1.79,4.28H55.88L63,314.32Zm-4.35,10.49h7.06l-3.52-8.55Z"/><path class="cls-3" d="M80.13,314.32c3.22,0,5.24,1.49,5.24,4.35,0,2.3-1.47,4-4.14,4.21l4.67,7.73h-2L79.42,323H76.66v7.57H75V314.33h5.13Zm-.41,7.2c2.46,0,3.86-1,3.86-2.85s-1.47-2.83-3.86-2.83H76.66v5.68Z"/><path class="cls-3" d="M94.76,314.32c3.1,0,5.13,1.43,5.13,4.09A3.53,3.53,0,0,1,97,322v0a3.78,3.78,0,0,1,3.68,4.05c0,2.25-1.89,4.53-5.82,4.53H89.79V314.32Zm.09,7.13c1.84,0,3.24-1.06,3.24-2.83,0-1.59-1.24-2.78-3.38-2.78H91.44v5.61Zm-.12,7.63c2.48,0,4.16-1.13,4.16-3.08,0-2.18-1.49-3.17-4-3.17h-3.5v6.25Z"/><path class="cls-3" d="M106.81,314.32v10.14c0,3.2,1.63,5,4.3,5s4.3-1.84,4.3-5V314.32h1.66v10.3c0,3.75-2,6.39-6,6.39s-6-2.6-6-6.39v-10.3Z"/><path class="cls-3" d="M127.51,314.32c4.9,0,8.58,3.43,8.58,8.14a8.12,8.12,0,0,1-8.46,8.14h-5.5V314.32ZM127,329.08c4.48,0,7.27-2.85,7.27-6.62s-2.87-6.62-7.17-6.62H123.8v13.25H127Z"/><path class="cls-3" d="M149.7,315.88,148.25,317a3.55,3.55,0,0,0-3.15-1.59c-2,0-3.47,1.13-3.47,2.94,0,1.5,1,2.37,3,3,3,1,5.33,1.75,5.36,4.9,0,2.71-2.48,4.74-5.38,4.74a6.17,6.17,0,0,1-5.11-2.42l1.5-1.08a4.07,4.07,0,0,0,3.68,2c1.84,0,3.52-1.22,3.52-3,0-1.59-.85-2.46-3.36-3.22-2.78-.87-5-1.66-5-4.78,0-2.87,2.32-4.62,5.27-4.62A5.62,5.62,0,0,1,149.7,315.88Z"/><path class="cls-3" d="M170.73,317.56c0,1.63-1.08,2.94-3.59,4.23l3.75,3.86,2.23-3.86H175l-3,5,3.66,3.77H173.3l-2.3-2.39c-1.45,1.91-2.94,2.81-5,2.81-2.88,0-5.11-1.86-5.11-4.65,0-1.95,1.15-3.61,3.7-4.81a5.7,5.7,0,0,1-1.91-3.84,3.76,3.76,0,0,1,4.07-3.82C169.05,313.91,170.73,315.31,170.73,317.56Zm-4.67,11.94c1.4,0,2.53-.62,3.91-2.39l-4.3-4.51c-1.59.92-2.94,1.75-2.94,3.77A3.18,3.18,0,0,0,166.06,329.5Zm0-8.76c2.74-1.4,3-2.37,3-3.17a2.14,2.14,0,0,0-2.28-2.14,2.33,2.33,0,0,0-2.42,2.37A4.94,4.94,0,0,0,166.08,320.74Z"/><path class="cls-3" d="M196.07,315.88,194.62,317a3.55,3.55,0,0,0-3.15-1.59c-2,0-3.47,1.13-3.47,2.94,0,1.5,1,2.37,3,3,3,1,5.33,1.75,5.36,4.9,0,2.71-2.48,4.74-5.38,4.74a6.17,6.17,0,0,1-5.11-2.42l1.5-1.08a4.07,4.07,0,0,0,3.68,2c1.84,0,3.52-1.22,3.52-3,0-1.59-.85-2.46-3.36-3.22-2.78-.87-5-1.66-5-4.78,0-2.87,2.32-4.62,5.27-4.62A5.63,5.63,0,0,1,196.07,315.88Z"/><path class="cls-3" d="M203.39,314.32l5.5,13.25,5.5-13.25h2.53V330.6h-1.66V316.53h0l-5.89,14.07h-.87l-5.89-14.07h-.05V330.6h-1.66V314.32Z"/><path class="cls-3" d="M229,314.32,236,330.6h-1.93l-1.79-4.28H224l-1.79,4.28h-1.93l7.08-16.28Zm-4.35,10.49h7.06l-3.52-8.55Z"/><path class="cls-3" d="M244.53,314.32c3.22,0,5.24,1.49,5.24,4.35,0,2.3-1.47,4-4.14,4.21l4.67,7.73h-2L243.82,323h-2.76v7.57H239.4V314.33h5.13Zm-.41,7.2c2.46,0,3.86-1,3.86-2.85s-1.47-2.83-3.86-2.83h-3.06v5.68Z"/><path class="cls-3" d="M265,314.32v1.52h-5.45V330.6h-1.66V315.84h-5.45v-1.52Z"/><path class="cls-3" d="M268.31,314.32l3.91,13.93h0l4.09-13.93h2l4.09,13.93h.05l3.86-13.93h1.84l-4.81,16.28h-1.93l-4.09-13.93h-.05l-4.09,13.93h-1.93l-4.81-16.28Z"/><path class="cls-3" d="M297.61,314.32l7.08,16.28h-1.93L301,326.32h-8.32l-1.79,4.28h-1.93L296,314.32Zm-4.34,10.49h7.06l-3.52-8.55Z"/><path class="cls-3" d="M317.16,314.32v1.52h-5.45V330.6h-1.66V315.84H304.6v-1.52Z"/><path class="cls-3" d="M333.86,316.48l-1.45,1.08a5.45,5.45,0,0,0-4.19-2.14c-4,0-6.69,3.1-6.69,7s2.76,7,6.69,7a5.22,5.22,0,0,0,4.67-2.44l1.36,1a7.22,7.22,0,0,1-6,3,8.55,8.55,0,0,1,0-17.1A7,7,0,0,1,333.86,316.48Z"/><path class="cls-3" d="M339.84,314.32v7.06h8.88v-7.06h1.66V330.6h-1.66v-7.7h-8.88v7.7h-1.66V314.32Z"/><path class="cls-3" d="M368.45,314.32c3.1,0,5.13,1.43,5.13,4.09A3.53,3.53,0,0,1,370.7,322v0a3.78,3.78,0,0,1,3.68,4.05c0,2.25-1.89,4.53-5.82,4.53h-5.08V314.32Zm.1,7.13c1.84,0,3.24-1.06,3.24-2.83,0-1.59-1.24-2.78-3.38-2.78h-3.27v5.61Zm-.12,7.63c2.48,0,4.16-1.13,4.16-3.08,0-2.18-1.49-3.17-4-3.17h-3.5v6.25Z"/><path class="cls-3" d="M384.25,314.32c3.22,0,5.24,1.49,5.24,4.35,0,2.3-1.47,4-4.14,4.21l4.67,7.73h-2L383.54,323h-2.76v7.57h-1.66V314.33h5.13Zm-.41,7.2c2.46,0,3.86-1,3.86-2.85s-1.47-2.83-3.86-2.83h-3.06v5.68Z"/><path class="cls-3" d="M400.4,314.32l7.08,16.28h-1.93l-1.79-4.28h-8.32l-1.79,4.28h-1.93l7.08-16.28Zm-4.35,10.49h7.06l-3.52-8.55Z"/><path class="cls-3" d="M412.91,314.32l9.7,13.8h.05v-13.8h1.66V330.6h-2.07l-9.7-13.93h-.05V330.6h-1.66V314.32Z"/><path class="cls-3" d="M435,314.32c4.9,0,8.58,3.43,8.58,8.14a8.12,8.12,0,0,1-8.46,8.14h-5.5V314.32Zm-.49,14.76c4.48,0,7.27-2.85,7.27-6.62s-2.87-6.62-7.17-6.62h-3.33v13.25h3.23Z"/><line class="cls-4" x1="192.58" y1="191.61" x2="41.15" y2="191.61"/><line class="cls-4" x1="445.94" y1="191.61" x2="293.97" y2="191.61"/><line class="cls-4" x1="445.94" y1="296.96" x2="41.15" y2="296.96"/></g></g></svg>