<?xml version="1.0" standalone="no"?><!DOCTYPE svg PUBLIC "-//W3C//DTD SVG 1.1//EN" "http://www.w3.org/Graphics/SVG/1.1/DTD/svg11.dtd"><svg t="1731666498628" class="icon" viewBox="0 0 1025 1024" version="1.1" xmlns="http://www.w3.org/2000/svg" p-id="4342" xmlns:xlink="http://www.w3.org/1999/xlink" width="200.1953125" height="200"><path d="M436.224 372.736c-4.096 21.504-10.24 44.032-18.432 65.536L379.904 539.648h116.736l-35.84-95.232c-11.264-29.696-19.456-53.248-24.576-71.68z" p-id="4343"></path><path d="M848.896 510.976c0-186.368-150.528-337.92-337.92-337.92-186.368 0-337.92 150.528-337.92 337.92s151.552 337.92 337.92 337.92 337.92-151.552 337.92-337.92zM549.888 681.984l-39.936-104.448h-143.36L328.704 681.984h-48.128l132.096-345.088H461.824l140.288 345.088h-52.224z m142.336 0h-45.056V336.896h45.056v345.088z" p-id="4344"></path><path d="M563.2 51.2c214.016 24.576 384 194.56 407.552 408.576 0 14.336 11.264 25.6 25.6 25.6s25.6-11.264 25.6-25.6C998.4 217.088 805.888 24.576 563.2 0h-5.12c-12.288 2.048-21.504 12.288-21.504 25.6 1.024 14.336 12.288 25.6 26.624 25.6zM1021.952 557.056c-2.048-12.288-12.288-21.504-25.6-21.504h-5.12c-12.288 2.048-21.504 12.288-21.504 25.6l-2.048 14.336c-29.696 207.872-196.608 370.688-406.528 394.24h1.024-6.144c-12.288 2.048-21.504 12.288-21.504 25.6v5.12c2.048 12.288 12.288 21.504 25.6 20.48v1.024c242.688-24.576 435.2-217.088 459.776-459.776l2.048-5.12zM2.048 463.872c2.048 12.288 12.288 21.504 25.6 21.504 14.336 0 25.6-11.264 25.6-25.6v-1.024C76.8 244.736 246.784 75.776 460.8 51.2h4.096c12.288-2.048 21.504-12.288 21.504-25.6C486.4 11.264 475.136 0 461.824 0 218.112 24.576 25.6 217.088 1.024 459.776l1.024 4.096zM459.776 969.728C245.76 946.176 75.776 776.192 52.224 562.176v1.024-5.12c-2.048-12.288-12.288-21.504-25.6-21.504-14.336 0-25.6 11.264-26.624 25.6 24.576 242.688 217.088 435.2 459.776 459.776v-1.024h4.096c12.288-2.048 21.504-12.288 21.504-25.6 0-14.336-11.264-25.6-25.6-25.6z" p-id="4345"></path></svg>