<?xml version="1.0" encoding="utf-8"?>
<!-- Generator: Adobe Illustrator 27.2.0, SVG Export Plug-In . SVG Version: 6.00 Build 0)  -->
<svg version="1.1" id="_图层_2" xmlns="http://www.w3.org/2000/svg" xmlns:xlink="http://www.w3.org/1999/xlink" x="0px" y="0px"
	 viewBox="0 0 20.2 20.1" style="enable-background:new 0 0 20.2 20.1;" xml:space="preserve">
<style type="text/css">
	.st0{fill:#000;}
	.st1{fill:none;}
	.st2{fill:#fff;}
</style>
<g id="_图层_1-2">
	<g>
		<path class="st0" d="M10.1,20.1L10.1,20.1c-5.5,0-10-4.5-10-10.1l0,0c0-5.6,4.5-10.1,10-10.1l0,0c5.6,0,10,4.5,10,10.1l0,0
			C20.1,15.6,15.7,20.1,10.1,20.1L10.1,20.1z"/>
		<path class="st1" d="M10.1,16.9L10.1,16.9c-3.8,0-6.9-3.1-6.9-6.9l0,0C3.2,6.1,6.3,3,10.1,3l0,0C13.9,3,17,6.1,17,10l0,0
			C17,13.8,13.9,16.9,10.1,16.9z"/>
		<path class="st2" d="M16.3,9.2C16.3,9.2,16.3,9.1,16.3,9.2C16.3,9.1,16.3,9.1,16.3,9.2C16.3,9.1,16.3,9.1,16.3,9.2
			C16.3,9.1,16.3,9.1,16.3,9.2C16.3,9.1,16.3,9.1,16.3,9.2C16.3,9.1,16.3,9.1,16.3,9.2c0-0.1,0-0.1,0-0.1l0,0l-1.8-2.8c0,0,0,0,0,0
			c0,0-0.1-0.1-0.1-0.1c0,0-0.1,0-0.1,0c0,0,0,0,0,0H6c0,0,0,0,0,0c0,0-0.1,0-0.1,0c-0.1,0-0.1,0.1-0.1,0.1c0,0,0,0,0,0L4,9.1l0,0
			c0,0,0,0,0,0c0,0,0,0,0,0c0,0,0,0,0,0c0,0,0,0,0,0c0,0,0,0,0,0c0,0,0,0,0,0c0,0,0,0,0,0l0,0l0,0c0,0,0,0,0,0c0,0,0,0,0,0
			c0,0,0,0,0,0c0,0,0,0,0,0c0,0,0,0,0,0c0,0,0,0,0,0c0,0,0,0,0,0c0,0,0,0,0,0l0,0c0,0,0,0,0,0l0,0l5.9,6.9c0.1,0.1,0.1,0.1,0.2,0.1
			s0.1,0,0.2-0.1l5.9-6.9l0,0c0,0,0,0,0,0l0,0C16.3,9.3,16.3,9.3,16.3,9.2C16.3,9.3,16.3,9.3,16.3,9.2C16.3,9.2,16.3,9.2,16.3,9.2
			C16.3,9.2,16.3,9.2,16.3,9.2C16.3,9.2,16.3,9.2,16.3,9.2C16.3,9.2,16.3,9.2,16.3,9.2C16.3,9.2,16.3,9.2,16.3,9.2
			C16.3,9.2,16.3,9.2,16.3,9.2L16.3,9.2L16.3,9.2L16.3,9.2z M10.1,6.7l2.4,2.3H7.7C7.7,8.9,10.1,6.7,10.1,6.7z M5.9,6.8l0.9,2.1H4.6
			C4.6,8.9,5.9,6.8,5.9,6.8z M10.1,15.5L7.5,9.4h5.3L10.1,15.5L10.1,15.5z M13.4,8.9l0.9-2.1l1.3,2.1H13.4z"/>
	</g>
</g>
</svg>
