<?xml version="1.0" encoding="UTF-8"?>
<svg id="_图层_1" data-name="图层 1" xmlns="http://www.w3.org/2000/svg" viewBox="0 0 17 17">
  <g id="icon-3">
    <path d="m8.5,0c4.7,0,8.5,3.81,8.5,8.5s-3.81,8.5-8.5,8.5S0,13.19,0,8.5,3.81,0,8.5,0h0Zm0,.99c4.15,0,7.51,3.36,7.51,7.51s-3.36,7.51-7.51,7.51S.99,12.65.99,8.5,4.35.99,8.5.99h0Z" style="fill: #000; fill-rule: evenodd; stroke-width: 0px;"/>
    <path d="m11.89,8.06c.26-.1.61-1.33-.54-1.46-.71-.08-1.73.19-2.31.16,0,0,.88-1.37.74-2.43-.08-.63-.64-1.33-1.3-1.16-.24.06-.33.21-.38.4-.05.2-.05.56-.09.83-.15,1-.65,1.55-1.14,2.43-.42.76-.8,1.43-1.06,1.62-.52.03-.97.05-.97.05-.77,0-.63,1.59-.53,2.18.13.71.89,2.37,1.59,2.22l1.1-.33c.64-.02,1.1.1,1.79.14.79.04,1.84,0,2.39-.32.42-.24.78-.86.45-1.3.46-.15.7-1.1.33-1.5.42-.28.42-1.34-.07-1.53Z" style="fill: #000; fill-rule: evenodd; stroke-width: 0px;"/>
  </g>
</svg>