<?xml version="1.0" encoding="UTF-8"?>
<svg id="_图层_2" data-name="图层 2" xmlns="http://www.w3.org/2000/svg" viewBox="0 0 460 275">
  <defs>
    <style>
      .cls-1 {
        fill: #000;
      }

      .cls-1, .cls-2, .cls-3, .cls-4 {
        stroke-width: 0px;
      }

      .cls-2, .cls-5, .cls-4 {
        fill: #82e600;
      }

      .cls-5 {
        font-family: AvenirLTStd-Black, 'Avenir LT Std';
        font-size: 31.16px;
        font-weight: 800;
        letter-spacing: .06em;
      }

      .cls-3 {
        fill: #fff;
      }

      .cls-4 {
        fill-rule: evenodd;
      }
    </style>
  </defs>
  <g id="_图层_1-2" data-name="图层 1">
    <g>
      <rect class="cls-3" width="460" height="275" rx="15" ry="15" transform="translate(460 275) rotate(180)"/>
      <g>
        <rect class="cls-1" x="205.71" y="120.78" width=".87" height="70.87"/>
        <g>
          <g>
            <path class="cls-2" d="M105,159.67c2.75,0,5.29-.91,7.33-2.43v2.43c0,4.02,3.28,7.29,7.33,7.29s7.32-3.27,7.32-7.29v-12.15c0-4.03,3.28-7.29,7.33-7.29.86,0,1.68.15,2.44.42v-5.04c-.79-.16-1.61-.25-2.44-.25-2.75,0-5.28.91-7.33,2.43v-2.43h-4.88v24.31c0,1.34-1.09,2.43-2.44,2.43s-2.44-1.09-2.44-2.43v-12.15c0-6.71-5.47-12.15-12.21-12.15s-12.21,5.44-12.21,12.15,5.47,12.15,12.21,12.15ZM105,140.23c4.05,0,7.33,3.26,7.33,7.29s-3.28,7.29-7.33,7.29-7.32-3.27-7.32-7.29,3.28-7.29,7.32-7.29Z"/>
            <path class="cls-2" d="M159.85,158.09l-2.41-4.23c-1.06.6-2.29.95-3.61.95-4.05,0-7.33-3.27-7.33-7.29v-14.58c0-4.03,3.28-7.29,7.33-7.29v-4.86c-6.75,0-12.21,5.44-12.21,12.15h.02v14.58h-.02c0,4.49,2.45,8.41,6.09,10.51h0v.43c0,15.43-12.56,27.93-28.06,27.93s-28.07-12.51-28.07-27.93v-.43c-1.01-1.27-1.83-2.68-2.44-4.21-1.08.62-2.33.99-3.67.99-4.05,0-7.33-3.27-7.33-7.29s3.28-7.29,7.33-7.29c1.34,0,2.59.36,3.67.99.61-1.52,1.44-2.94,2.44-4.2-1.8-1.04-3.88-1.64-6.11-1.64-6.74,0-12.21,5.44-12.21,12.15s5.47,12.15,12.21,12.15c.42,0,.84-.03,1.26-.07.61,17.55,15.14,31.65,32.92,31.65s32.31-14.09,32.92-31.65c.42.04.84.07,1.27.07,2.19,0,4.24-.58,6.01-1.58Z"/>
          </g>
          <path class="cls-2" d="M138.63,164.19c0-.48-.4-.88-.88-.88-.3,0-.55.16-.72.39h-.01c-3.24,6.26-9.8,10.54-17.37,10.54s-14.13-4.28-17.37-10.55h-.01c-.16-.22-.41-.39-.72-.39-.49,0-.88.39-.88.88,0,.08.03.16.05.24h-.01c2.14,8.44,9.81,14.68,18.95,14.68s16.81-6.24,18.94-14.67h-.01c.02-.09.05-.16.05-.25Z"/>
          <g>
            <path class="cls-4" d="M153.83,127.1c1.48,0,2.83.54,3.86,1.44-.34.47-.63.99-.86,1.54-.75-.79-1.82-1.28-3-1.28-2.29,0-4.15,1.85-4.15,4.13s1.86,4.13,4.15,4.13c1.18,0,2.25-.49,3-1.28.23.54.52,1.06.86,1.53-1.03.9-2.38,1.45-3.86,1.45-3.24,0-5.86-2.61-5.86-5.83s2.62-5.83,5.86-5.83Z"/>
            <path class="cls-4" d="M169.7,132.93v5.81h-1.71v-1.69c-1.06,1.06-2.53,1.72-4.15,1.72-3.24,0-5.86-2.61-5.86-5.83s2.62-5.83,5.86-5.83c1.62,0,3.09.65,4.15,1.71v-1.73h1.71v5.85h0ZM163.85,128.8c-2.29,0-4.15,1.85-4.15,4.13s1.86,4.13,4.15,4.13,4.15-1.85,4.15-4.13-1.86-4.13-4.15-4.13Z"/>
            <path class="cls-4" d="M186.73,135l1.48.85c-1.04,1.81-2.98,2.92-5.08,2.92-3.24,0-5.86-2.61-5.86-5.83s2.63-5.83,5.86-5.83,5.86,2.61,5.86,5.83c0,.28-.03.57-.07.85h-9.86c.39,1.87,2.06,3.28,4.06,3.28,1.49,0,2.86-.79,3.59-2.07h0ZM187.2,132.08c-.39-1.87-2.06-3.28-4.07-3.28s-3.67,1.41-4.06,3.28h8.13Z"/>
            <path class="cls-4" d="M171.41,127.1h1.71v1.71c1.06-1.06,2.53-1.71,4.15-1.71v1.7c-2.29,0-4.15,1.85-4.15,4.13v5.83h-1.71v-11.66Z"/>
          </g>
        </g>
        <text class="cls-5" transform="translate(223.2 151.16)"><tspan x="0" y="0">CARLCARE</tspan><tspan x="0" y="34.82">SERVICE</tspan></text>
      </g>
    </g>
  </g>
</svg>