<svg width="19" height="18" viewBox="0 0 19 18" fill="none" xmlns="http://www.w3.org/2000/svg">
<g id="icon/18x18/gift">
<g id="Group 1643">
<rect id="Rectangle 2198" x="1.5" y="4.61841" width="16" height="4" rx="1" stroke="#82E600" stroke-width="1.5"/>
<path id="Rectangle 2199" d="M3 8.61841H16V14.6184C16 15.9991 14.8807 17.1184 13.5 17.1184H5.5C4.11929 17.1184 3 15.9991 3 14.6184V8.61841Z" stroke="#82E600" stroke-width="1.5"/>
<line id="Line 321" x1="9.5" y1="8.75" x2="9.5" y2="17.25" stroke="#82E600" stroke-width="1.5"/>
<path id="Rectangle 2200" d="M4.41421 4.5961V4.5961C3.63316 3.81505 3.63316 2.54872 4.41421 1.76767V1.76767C5.19526 0.986623 6.46159 0.986623 7.24264 1.76767L8.65685 3.18188L9.51041 4.03544" stroke="#82E600" stroke-width="1.5" stroke-linecap="round"/>
<path id="Rectangle 2201" d="M14.5858 4.5961V4.5961C15.3668 3.81505 15.3668 2.54872 14.5858 1.76767V1.76767C13.8047 0.986623 12.5384 0.986623 11.7574 1.76767L10.3431 3.18188L9.48959 4.03544" stroke="#82E600" stroke-width="1.5" stroke-linecap="round"/>
</g>
</g>
</svg>
