<svg xmlns="http://www.w3.org/2000/svg" viewBox="0 0 322.5 215"><defs><style>.cls-1{fill:#fff;}.cls-2{font-size:22.08px;font-family:AvenirLTStd-Black, Avenir LT Std;font-weight:800;letter-spacing:0.06em;}.cls-2,.cls-4{fill:#82e600;}.cls-3{fill:none;stroke:#000;stroke-width:1.84px;}.cls-3,.cls-4{stroke-miterlimit:10;}.cls-4{stroke:#fff;stroke-width:4.9px;}</style></defs><g id="图层_2" data-name="图层 2"><g id="图层_1-2" data-name="图层 1"><rect class="cls-1" width="322.5" height="215" rx="6"/><text class="cls-2" transform="translate(100.31 128.26)">AUTHENTICITY<tspan x="0" y="24.68">&amp; BEST PRICE</tspan></text><path class="cls-3" d="M54.08,112.23H75.62a9.71,9.71,0,0,1,9.69,9.69v21.53a9.73,9.73,0,0,1-9.69,9.7H54.08a9.73,9.73,0,0,1-9.69-9.7V121.92a9.71,9.71,0,0,1,9.69-9.69Z"/><path class="cls-4" d="M54.85,121.57A5.85,5.85,0,0,1,57,122a5.77,5.77,0,0,1,1.85,1.2l10.38,10.06,17.19-27.15,0-.09A5.68,5.68,0,0,1,88,104.38a5.6,5.6,0,0,1,2-.9,5.66,5.66,0,0,1,5.87,2.22,5.69,5.69,0,0,1,1,4.21,5.7,5.7,0,0,1-.78,2.06l0,0h0L75.41,144.68c-.07.12-.13.25-.21.37h0l-.23.37-.27.35q-.14.16-.3.33a5.62,5.62,0,0,1-1.82,1.26,5.77,5.77,0,0,1-2.16.46,5.62,5.62,0,0,1-2.18-.4,5.4,5.4,0,0,1-1.86-1.2l-.09-.09-.1-.09h0L51,131.29a5.84,5.84,0,0,1-1.26-1.82,5.76,5.76,0,0,1-.45-2.16,5.57,5.57,0,0,1,.4-2.17,5.27,5.27,0,0,1,1.2-1.85A5.69,5.69,0,0,1,52.69,122a5.81,5.81,0,0,1,2.16-.46Z"/></g></g></svg>