<?xml version="1.0" encoding="UTF-8"?>
<svg id="_图层_2" data-name="图层 2" xmlns="http://www.w3.org/2000/svg" viewBox="0 0 460 275">
  <defs>
    <style>
      .cls-1 {
        fill: #82e600;
      }

      .cls-1, .cls-2 {
        stroke-width: 0px;
      }

      .cls-2 {
        fill: #fff;
      }

      .cls-3 {
        fill: none;
        stroke: #000;
        stroke-miterlimit: 10;
        stroke-width: 1.18px;
      }
    </style>
  </defs>
  <g id="_图层_1-2" data-name="图层 1">
    <g>
      <rect class="cls-2" width="460" height="275" rx="15" ry="15" transform="translate(460 275) rotate(180)"/>
      <g>
        <g>
          <path class="cls-1" d="M151.74,144.45l-3.77,12.36h22.81l-3.8,12.44h-22.81l-7.54,24.71h-12.44l18.87-61.87h39.4l-3.77,12.36h-26.96Z"/>
          <path class="cls-1" d="M220.63,193.96h-14.86l-11.32-31.71-9.67,31.71h-12.44l18.87-61.87h27.65c2.71,0,5.1.52,7.17,1.56,2.07,1.04,3.72,2.45,4.93,4.23,1.21,1.79,1.97,3.88,2.28,6.27.31,2.39.05,4.94-.78,7.65-.67,2.19-1.67,4.31-3.02,6.35-1.35,2.05-2.91,3.9-4.68,5.57-1.78,1.67-3.73,3.11-5.85,4.32-2.13,1.21-4.34,2.1-6.65,2.68l8.38,23.25ZM210.66,158.96c2.02,0,3.93-.69,5.73-2.07,1.8-1.38,3.01-3.08,3.63-5.1.32-1.04.42-1.99.31-2.85-.11-.86-.38-1.63-.81-2.29-.43-.66-1.04-1.18-1.82-1.56-.78-.37-1.66-.56-2.64-.56h-15.21l-4.4,14.43h15.21Z"/>
          <path class="cls-1" d="M256.39,144.45l-3.77,12.36h22.64l-3.8,12.44h-22.64l-3.77,12.36h26.79l-3.77,12.36h-39.23l18.87-61.87h39.23l-3.77,12.36h-26.79Z"/>
          <path class="cls-1" d="M305.13,144.45l-3.77,12.36h22.64l-3.8,12.44h-22.64l-3.77,12.36h26.79l-3.77,12.36h-39.23l18.87-61.87h39.23l-3.77,12.36h-26.79Z"/>
        </g>
        <line class="cls-3" x1="352.2" y1="116.9" x2="74.8" y2="116.9"/>
        <line class="cls-3" x1="111.28" y1="132.09" x2="41.44" y2="132.09"/>
        <line class="cls-3" x1="402.96" y1="195.4" x2="333.12" y2="195.4"/>
        <line class="cls-3" x1="97.26" y1="176.96" x2="64.64" y2="176.96"/>
        <line class="cls-3" x1="410.2" y1="151.75" x2="377.58" y2="151.75"/>
        <line class="cls-3" x1="356.7" y1="209.11" x2="105.38" y2="209.11"/>
      </g>
    </g>
  </g>
</svg>