<svg width="20" height="24" viewBox="0 0 20 24" fill="none" xmlns="http://www.w3.org/2000/svg">
<path d="M1.19336 4C1.19336 2.34315 2.53651 1 4.19336 1H16.1934C17.8502 1 19.1934 2.34315 19.1934 4V20C19.1934 21.6569 17.8502 23 16.1934 23H4.19336C2.53651 23 1.19336 21.6569 1.19336 20V4Z" stroke="white" stroke-width="0.95"/>
<path d="M14.7013 11.8662C15.6183 11.8662 16.1938 12.5555 16.1938 13.4598C16.1938 14.3199 15.6246 15.0535 14.7266 15.0535C14.3219 15.0535 13.9488 14.9143 13.6958 14.5918H13.6768V16.4194H12.918V11.9421H13.6389V12.3974H13.6515C13.8919 12.0117 14.2903 11.8662 14.7013 11.8662ZM13.6515 13.4598C13.6515 14.0037 14.05 14.3705 14.5432 14.3705C15.0555 14.3705 15.4349 13.9847 15.4349 13.4598C15.4349 13.0235 15.1313 12.5492 14.5369 12.5492C14.031 12.5492 13.6515 12.9413 13.6515 13.4598Z" fill="white"/>
<path d="M10.8439 11.8662C11.7609 11.8662 12.3363 12.5555 12.3363 13.4598C12.3363 14.3199 11.7672 15.0535 10.8692 15.0535C10.4645 15.0535 10.0913 14.9143 9.83839 14.5918H9.81942V16.4194H9.06055V11.9421H9.78147V12.3974H9.79412C10.0344 12.0117 10.4328 11.8662 10.8439 11.8662ZM9.79412 13.4598C9.79412 14.0037 10.1925 14.3705 10.6858 14.3705C11.198 14.3705 11.5775 13.9847 11.5775 13.4598C11.5775 13.0235 11.2739 12.5492 10.6795 12.5492C10.1736 12.5492 9.79412 12.9413 9.79412 13.4598Z" fill="white"/>
<path d="M6.14113 10.5H6.83043L8.75923 14.9773H7.84859L7.43121 13.9529H5.48976L5.08503 14.9773H4.19336L6.14113 10.5ZM6.46365 11.4486L5.76169 13.2699H7.15295L6.46365 11.4486Z" fill="white"/>
<path d="M7.69336 4.5L12.6934 4.5" stroke="white" stroke-width="0.95" stroke-linecap="round"/>
</svg>
