<!-- Generated by IcoMoon.io -->
<svg version="1.1" xmlns="http://www.w3.org/2000/svg" width="32" height="32" viewBox="0 0 32 32">
<path fill="#fff" d="M13.809 19.765v-7.529l6.571 3.778-6.571 3.752zM28.88 10.152c0 0-0.257-2.015-1.045-2.903-1-1.165-2.12-1.17-2.634-1.238-3.678-0.297-9.196-0.297-9.196-0.297h-0.011c0 0-5.518 0-9.196 0.297-0.515 0.068-1.634 0.073-2.635 1.238-0.788 0.888-1.044 2.904-1.044 2.904s-0.263 2.365-0.263 4.73v2.22c0 2.367 0.263 4.734 0.263 4.734s0.256 2.015 1.044 2.903c1.001 1.165 2.314 1.128 2.899 1.25 2.103 0.226 8.937 0.295 8.937 0.295s5.523-0.010 9.201-0.305c0.515-0.069 1.634-0.074 2.634-1.239 0.789-0.888 1.045-2.904 1.045-2.904s0.263-2.366 0.263-4.733v-2.219c0-2.367-0.263-4.734-0.263-4.734z"></path>
</svg>
