<svg width="48" height="48" viewBox="0 0 48 48" fill="none" xmlns="http://www.w3.org/2000/svg">
<rect width="48" height="48" rx="24" fill="black"/>
<path d="M9 22.0039C9 20.8993 9.89543 20.0039 11 20.0039H12V27.0039H11C9.89543 27.0039 9 26.1085 9 25.0039V22.0039Z" stroke="#82E600" stroke-width="2"/>
<path d="M12.0059 23.5039V22.0039C12.0059 17.0333 16.0353 13.0039 21.0059 13.0039H27.0059C31.9764 13.0039 36.0059 17.0333 36.0059 22.0039V25.0039C36.0059 29.9745 31.9764 34.0039 27.0059 34.0039H23.5059" stroke="#82E600" stroke-width="2"/>
<rect x="20.5" y="20.5039" width="1" height="4" rx="0.5" fill="#82E600" stroke="#82E600"/>
<rect x="28.5" y="20.5039" width="1" height="4" rx="0.5" fill="#82E600" stroke="#82E600"/>
<rect x="23" y="32.0039" width="6" height="4" rx="2" fill="#82E600"/>
<path d="M36 20.0039H37C38.1046 20.0039 39 20.8993 39 22.0039V25.0039C39 26.1085 38.1046 27.0039 37 27.0039H36V20.0039Z" stroke="#82E600" stroke-width="2"/>
</svg>
