<?xml version="1.0" encoding="UTF-8"?>
<svg id="_图层_1" data-name="图层 1" xmlns="http://www.w3.org/2000/svg" viewBox="0 0 30.155 30.155">
  <g id="icon-6" transform="rotate(90) translate(0 -30.155)">
    <path d="m.262,15.072c0,8.18,6.63,14.82,14.81,14.82s14.82-6.64,14.82-14.82S23.262.262,15.072.262.262,6.902.262,15.072Z" style="fill: none; stroke: #000; stroke-miterlimit: 10; stroke-width: .525px;"/>
    <g>
      <path d="m13.062,7.212v15.72c0,.35.29.65.64.65h1.95c.3-.38,1.8-2.47,2.57-5.34,1.15-4.25.27-8.18-2.63-11.64-.01-.01-.01-.04-.02-.04h-1.88c-.34.01-.63.31-.63.65Zm4.92,7.86c0,.43-.35.79-.79.79s-.79-.35-.79-.79c0-.43.35-.79.79-.79s.79.36.79.79Z" style="fill: #000; stroke-width: 0px;"/>
      <path d="m7.752,9.982c-.55-.27-1.25-.08-1.76.47-.42.46-.7,1.13-.86,2-.15.82-.14,1.62.01,2.32.18.8.55,1.49,1.05,1.92.51.44,1.13.61,1.72.77.64.18,1.25.34,1.72.81.48.47.76,1.2.96,1.86.04.13.08.27.12.4.18.61.37,1.23.69,1.78.38.66.89,1.08,1.46,1.21-.07-.15-.11-.32-.12-.51-.48-.13-.89-.57-1.14-1-.28-.5-.46-1.07-.64-1.67-.04-.14-.08-.27-.12-.41-.22-.71-.53-1.51-1.07-2.04-.52-.51-1.18-.69-1.82-.87-.6-.17-1.17-.32-1.64-.73-.44-.38-.77-.97-.92-1.67-.14-.62-.14-1.31-.01-2.04.14-.77.39-1.36.75-1.75.43-.47,1.05-.64,1.51-.41.13.06.25.15.37.25.22.17.47.36.76.36.42.01.83-.38,1.1-1.03.05-.12.1-.24.14-.36l.01-.02c.14-.36.27-.69.46-.99.56-.92,1.69-1.3,2.25-1.44,0-.2.04-.38.11-.53-.63.16-2,.65-2.56,1.65-.24.43-.37.75-.5,1.09-.05.12-.09.24-.14.35-.08.2-.39.85-.86.83-.23-.01-.43-.16-.64-.32-.11-.11-.25-.21-.39-.28Z" style="fill: #000; stroke-width: 0px;"/>
      <path d="m16.792,15.072c0,.22.18.41.41.41.22,0,.41-.18.41-.41,0-.22-.18-.41-.41-.41-.23.01-.41.19-.41.41Z" style="fill: #000; stroke-width: 0px;"/>
      <path d="m18.592,18.362c-.71,2.59-1.95,4.46-2.46,5.23h4.05c1.21,0,2.16-1.01,2.16-2.22v-12.58c0-1.21-.94-2.22-2.16-2.22h-4.11c2.3,2.8,3.01,5.71,3.01,8.18,0,1.33-.21,2.57-.49,3.61Z" style="fill: #000; stroke-width: 0px;"/>
    </g>
  </g>
</svg>