<?xml version="1.0" encoding="UTF-8"?>
<svg id="_图层_1" data-name="图层 1" xmlns="http://www.w3.org/2000/svg" viewBox="0 0 19.29 19.28">
  <g id="icon-3">
    <path d="m9.65,0C4.32,0,0,4.31,0,9.63s4.32,9.65,9.65,9.65,9.64-4.32,9.64-9.65c-.01-5.32-4.33-9.63-9.64-9.63Z" style="fill: #000; stroke-width: 0px;"/>
    <g>
      <path d="m12.85,13.82h-6.52c-.6,0-1.09-.49-1.09-1.09h0c0-.6.49-1.09,1.09-1.09h6.52c.6,0,1.09.49,1.09,1.09h0c0,.6-.49,1.09-1.09,1.09Z" style="fill: #fff; stroke-width: 0px;"/>
      <g>
        <path d="m15.28,9.91c0,.14-.12.26-.26.26H4.27c-.15,0-.27-.12-.27-.26v-4.04c0-.16.12-.27.27-.27h10.75c.14,0,.26.11.26.27v4.04Z" style="fill: #fff; stroke-width: 0px;"/>
        <path d="m14.01,7.78H5.33c-.18,0-.31.14-.31.31v.73c0,.17.13.3.31.3h8.68c.17,0,.31-.14.31-.3v-.73c0-.17-.14-.31-.31-.31Z" style="fill: #000; stroke-width: 0px;"/>
      </g>
    </g>
  </g>
</svg>