<?xml version="1.0" encoding="UTF-8"?>
<svg id="_图层_1" data-name="图层 1" xmlns="http://www.w3.org/2000/svg" viewBox="0 0 37 37">
  <g id="icon-6">
    <path d="m0,18.5c0,10.22,8.28,18.5,18.49,18.5s18.51-8.29,18.51-18.5S28.72,0,18.49,0,0,8.28,0,18.5" style="fill: #000; stroke-width: 0px;"/>
    <path d="m13.82,9.79h2.73c.36,0,.69.1.96.35.23.22.37.49.41.8.01.09.01.18.01.28v5.45c0,.57-.33,1.05-.85,1.25-.15.06-.32.08-.48.08h-5.56c-.66,0-1.21-.47-1.31-1.12-.01-.07-.02-.15-.02-.22v-5.54c0-.66.45-1.2,1.1-1.31.08-.01.17-.02.25-.02.91,0,1.84,0,2.76,0h0Zm0,1.32h-2.69q-.1,0-.1.1v5.38q0,.1.1.1h5.37q.1,0,.1-.1v-5.38q0-.1-.1-.1h-2.68Zm0,7.88h2.74c.35,0,.66.1.92.33.24.22.39.49.43.81.01.09.01.17.01.26v5.49c0,.64-.43,1.17-1.05,1.3-.11.02-.23.03-.34.03h-5.44c-.37,0-.69-.1-.96-.36-.28-.27-.42-.6-.42-.99v-5.43c0-.1,0-.19.01-.28.05-.57.54-1.08,1.11-1.15.09-.01.17-.01.26-.01h2.73Zm-2.79,4.11v2.69q0,.1.11.1h5.36q.11,0,.11-.1v-5.37q0-.1-.1-.1h-5.37q-.1,0-.1.1v2.68h-.01Zm8.06-9.2v-2.8c0-.37.14-.68.4-.93.25-.24.55-.37.9-.37h5.63c.71,0,1.29.59,1.29,1.29v5.63c0,.68-.53,1.24-1.2,1.29-.08.01-.16.01-.24.01h-5.41c-.35,0-.67-.11-.93-.35-.27-.25-.42-.55-.42-.92-.01-.76,0-1.52,0-2.28v-.57h-.02Zm1.32,0v2.7q0,.09.09.09h5.4q.09,0,.09-.09v-5.4q0-.09-.09-.09h-5.4q-.09,0-.09.1v2.69h0Zm2.79,13.31c-2.26.01-4.11-1.85-4.11-4.11,0-2.24,1.84-4.11,4.11-4.11s4.11,1.87,4.11,4.12c-.01,2.26-1.85,4.1-4.11,4.1h0Zm-.01-1.32c1.53,0,2.79-1.25,2.8-2.78,0-1.52-1.23-2.77-2.75-2.79-1.56-.02-2.82,1.26-2.83,2.78-.01,1.52,1.25,2.78,2.78,2.79h0Z" style="fill: #fff; stroke-width: 0px;"/>
  </g>
</svg>