<?xml version="1.0" encoding="UTF-8"?>
<svg id="_图层_1" data-name="图层 1" xmlns="http://www.w3.org/2000/svg" viewBox="0 0 17.01 17">
  <g id="icon-3">
    <path d="m0,8.5c0,4.69,3.81,8.5,8.5,8.5s8.51-3.81,8.51-8.5S13.19,0,8.5,0C3.82-.01,0,3.81,0,8.5" style="fill: #000; stroke-width: 0px;"/>
    <g>
      <circle cx="8.51" cy="8.5" r="2.76" style="fill: #fff; stroke-width: 0px;"/>
      <line x1="3.12" y1="8.5" x2="4.44" y2="8.5" style="fill: none; stroke: #fff; stroke-linecap: round; stroke-linejoin: round; stroke-width: .486px;"/>
      <line x1="3.84" y1="11.19" x2="4.99" y2="10.53" style="fill: none; stroke: #fff; stroke-linecap: round; stroke-linejoin: round; stroke-width: .486px;"/>
      <line x1="5.81" y1="13.16" x2="6.47" y2="12.02" style="fill: none; stroke: #fff; stroke-linecap: round; stroke-linejoin: round; stroke-width: .486px;"/>
      <line x1="8.51" y1="13.88" x2="8.51" y2="12.56" style="fill: none; stroke: #fff; stroke-linecap: round; stroke-linejoin: round; stroke-width: .486px;"/>
      <line x1="11.2" y1="13.16" x2="10.54" y2="12.02" style="fill: none; stroke: #fff; stroke-linecap: round; stroke-linejoin: round; stroke-width: .486px;"/>
      <line x1="13.17" y1="11.19" x2="12.03" y2="10.53" style="fill: none; stroke: #fff; stroke-linecap: round; stroke-linejoin: round; stroke-width: .486px;"/>
      <line x1="13.89" y1="8.5" x2="12.57" y2="8.5" style="fill: none; stroke: #fff; stroke-linecap: round; stroke-linejoin: round; stroke-width: .486px;"/>
      <line x1="13.17" y1="5.8" x2="12.03" y2="6.46" style="fill: none; stroke: #fff; stroke-linecap: round; stroke-linejoin: round; stroke-width: .486px;"/>
      <line x1="11.2" y1="3.83" x2="10.54" y2="4.98" style="fill: none; stroke: #fff; stroke-linecap: round; stroke-linejoin: round; stroke-width: .486px;"/>
      <line x1="8.51" y1="3.11" x2="8.51" y2="4.43" style="fill: none; stroke: #fff; stroke-linecap: round; stroke-linejoin: round; stroke-width: .486px;"/>
      <line x1="5.81" y1="3.83" x2="6.47" y2="4.98" style="fill: none; stroke: #fff; stroke-linecap: round; stroke-linejoin: round; stroke-width: .486px;"/>
      <line x1="3.84" y1="5.8" x2="4.99" y2="6.46" style="fill: none; stroke: #fff; stroke-linecap: round; stroke-linejoin: round; stroke-width: .486px;"/>
    </g>
  </g>
</svg>