<?xml version="1.0" encoding="utf-8"?>
<!-- Generator: Adobe Illustrator 25.1.0, SVG Export Plug-In . SVG Version: 6.00 Build 0)  -->
<svg version="1.1" id="图层_1" xmlns="http://www.w3.org/2000/svg" xmlns:xlink="http://www.w3.org/1999/xlink" x="0px" y="0px"
	 viewBox="0 0 50 50" style="enable-background:new 0 0 50 50;" xml:space="preserve">
<style type="text/css">
	.st0{fill:#000;}
	.st1{fill:#E70212;}
	.st2{clip-path:url(#SVGID_2_);}
	.st3{fill:#EA6101;}
	.st4{fill:#F39801;}
	.st5{clip-path:url(#SVGID_4_);}
	.st6{fill:#FCC902;}
	.st7{fill:#FEF200;}
	.st8{fill:#90C320;}
	.st9{fill:#019A44;}
	.st10{clip-path:url(#SVGID_6_);}
	.st11{fill:#019E97;}
	.st12{fill:#0169B8;}
	.st13{fill:#1C2089;}
	.st14{fill:#621988;}
	.st15{fill:#910783;}
</style>
<g id="图层_2_1_">
	<g id="图层_1-2">
		<g id="neon-light-effect">
			<path class="st0" d="M0,25.1L0,25.1c0-13.8,11.2-25,25-25s25,11.2,25,25s-11.2,25-25,25S0,38.9,0,25.1L0,25.1"/>
			<path class="st1" d="M25,41.7c-3,0-6-0.8-8.6-2.4l0.2,0.1l4.2-7.2c1.3,0.7,2.7,1.1,4.2,1.1L25,41.7z"/>
			<g>
				<defs>
					<rect id="SVGID_1_" x="8.3" y="8.3" width="33.4" height="33.4"/>
				</defs>
				<clipPath id="SVGID_2_">
					<use xlink:href="#SVGID_1_"  style="overflow:visible;"/>
				</clipPath>
				<g class="st2">
					<path class="st3" d="M16.7,39.5c-2.6-1.5-4.8-3.7-6.2-6.3l0.1,0.2l7.2-4.2c0.7,1.3,1.8,2.3,3,3.1L16.7,39.5z"/>
					<path class="st4" d="M10.6,33.4c-1.5-2.6-2.3-5.6-2.2-8.6V25h8.3c0,1.5,0.4,2.9,1.1,4.2L10.6,33.4z"/>
				</g>
			</g>
			<g>
				<defs>
					<rect id="SVGID_3_" x="-970.2" y="-2882.9" width="2839.2" height="4396.2"/>
				</defs>
				<clipPath id="SVGID_4_">
					<use xlink:href="#SVGID_3_"  style="overflow:visible;"/>
				</clipPath>
				<g class="st5">
					<path class="st6" d="M8.4,25.1c0-2.8,0.7-5.6,2.1-8.1l0.2-0.3l7.2,4.2c-0.7,1.3-1.1,2.7-1.1,4.2L8.4,25.1L8.4,25.1z"/>
					<path class="st7" d="M17.8,20.9l-7.2-4.2c1.4-2.5,3.4-4.5,5.8-6l0.2-0.1l4.2,7.2C19.6,18.5,18.5,19.5,17.8,20.9"/>
					<path class="st8" d="M20.9,17.8l-4.2-7.2c2.4-1.4,5.2-2.2,8-2.2H25v8.3C23.5,16.7,22.1,17.1,20.9,17.8"/>
					<path class="st9" d="M25,16.7V8.4c2.8,0,5.6,0.7,8.1,2.1l0.2,0.1l-4.2,7.2C27.9,17.1,26.5,16.7,25,16.7L25,16.7z"/>
				</g>
			</g>
			<g>
				<defs>
					<rect id="SVGID_5_" x="8.3" y="8.3" width="33.4" height="33.4"/>
				</defs>
				<clipPath id="SVGID_6_">
					<use xlink:href="#SVGID_5_"  style="overflow:visible;"/>
				</clipPath>
				<g class="st10">
					<path class="st11" d="M29.2,17.8l4.2-7.2c2.5,1.4,4.5,3.4,6,5.9l0.2,0.2l-7.2,4.2C31.6,19.6,30.5,18.5,29.2,17.8"/>
					<path class="st12" d="M33.4,25.1c0-1.5-0.4-2.9-1.1-4.2l7.2-4.2c1.4,2.4,2.2,5.2,2.2,8V25L33.4,25.1z"/>
					<path class="st13" d="M39.5,33.4l-7.2-4.2c0.7-1.3,1.1-2.7,1.1-4.2h8.3c0,2.8-0.7,5.6-2.1,8.1L39.5,33.4z"/>
					<path class="st14" d="M33.2,39.6l0.2-0.1l-4.2-7.2c1.3-0.7,2.3-1.8,3-3.1l7.2,4.2C38,36,35.8,38.1,33.2,39.6L33.2,39.6z"/>
					<path class="st15" d="M24.8,41.7H25v-8.3c1.5,0,2.9-0.4,4.2-1.1l4.2,7.2C30.8,41,27.8,41.8,24.8,41.7"/>
				</g>
			</g>
		</g>
	</g>
</g>
</svg>
