<?xml version="1.0" encoding="UTF-8"?>
<svg id="_图层_1" data-name="图层 1" xmlns="http://www.w3.org/2000/svg" viewBox="0 0 21.26 21.26">
  <g id="icon-4">
    <g>
      <path d="m10.63,0C4.76,0,0,4.76,0,10.62s4.76,10.64,10.63,10.64,10.63-4.76,10.63-10.64c0-5.87-4.75-10.62-10.63-10.62Z" style="fill: #000; stroke-width: 0px;"/>
      <path d="m4.66,7.5h3.59l-.28,1.33h-2.01l-.21,1.07h1.88l-.27,1.28h-1.88l-.25,1.25h2.09l-.27,1.33h-3.67l1.28-6.26Z" style="fill: #fff; stroke-width: 0px;"/>
      <path d="m9.07,7.5h1.76l.22,3.86h.02l.8-3.86h1.48l-1.29,6.26h-1.73l-.25-3.87h-.02l-.8,3.87h-1.48l1.29-6.26Z" style="fill: #fff; stroke-width: 0px;"/>
      <path d="m16.29,9.4c.14-.71.06-.92-.25-.92-.48,0-.63.46-.98,2.15s-.39,2.15.09,2.15c.39,0,.54-.35.79-1.54h1.53l-.09.47c-.37,1.75-1.44,2.18-2.45,2.18-1.77,0-1.98-.92-1.49-3.25.49-2.4,1.2-3.26,2.83-3.26,1.42,0,1.8.77,1.55,1.98l-.08.39h-1.53l.08-.35Z" style="fill: #fff; stroke-width: 0px;"/>
      <path d="m10.63,1.13C5.39,1.13,1.13,5.38,1.13,10.62s4.25,9.5,9.5,9.5,9.49-4.25,9.49-9.5c.01-5.24-4.24-9.49-9.49-9.49Z" style="fill: none; stroke: #fff; stroke-miterlimit: 10; stroke-width: .425px;"/>
    </g>
  </g>
</svg>