<?xml version="1.0" encoding="utf-8"?>
<!-- Generator: Adobe Illustrator 25.1.0, SVG Export Plug-In . SVG Version: 6.00 Build 0)  -->
<svg version="1.1" id="图层_1" xmlns="http://www.w3.org/2000/svg" xmlns:xlink="http://www.w3.org/1999/xlink" x="0px" y="0px"
	 viewBox="0 0 23.2 23.2" style="enable-background:new 0 0 23.2 23.2;" xml:space="preserve">
<style type="text/css">
	.st0{fill:#000;}
	.st1{fill:#fff;}
</style>
<g id="图层_2_1_">
	<g id="图层_1-2">
		<g id="supports-4k-hd-video-display">
			<path class="st0" d="M11.6,0C5.2,0,0,5.2,0,11.6s5.2,11.6,11.6,11.6c6.4,0,11.6-5.2,11.6-11.6c0,0,0,0,0,0C23.2,5.2,18,0,11.6,0"
				/>
			<path class="st1" d="M9.6,7.7v4.6h1v1.3h-1v1.5H8.1v-1.5H4.8v-1.3l3-4.6H9.6z M8.1,9.8l-1.6,2.6h1.7L8.1,9.8L8.1,9.8z"/>
			<polygon class="st1" points="13.4,7.7 13.4,10.8 16.3,7.7 18.4,7.7 15.1,11.2 18.7,15.2 16.4,15.2 13.4,11.7 13.4,15.2 
				11.7,15.2 11.7,7.7 			"/>
		</g>
	</g>
</g>
</svg>
