<?xml version="1.0" encoding="utf-8"?>
<!-- Generator: Adobe Illustrator 25.1.0, SVG Export Plug-In . SVG Version: 6.00 Build 0)  -->
<svg version="1.1" id="图层_1" xmlns="http://www.w3.org/2000/svg" xmlns:xlink="http://www.w3.org/1999/xlink" x="0px" y="0px"
	 viewBox="0 0 50 50" style="enable-background:new 0 0 50 50;" xml:space="preserve">
<style type="text/css">
	.st0{fill:#000;}
	.st1{fill:#fff;}
</style>
<g id="图层_2_1_">
	<g id="图层_1-2">
		<g id="timer-settings">
			<path class="st0" d="M25,50L25,50C11.2,50,0,38.8,0,25C0,11.2,11.2,0,25,0c13.8,0,25,11.2,25,25S38.8,50,25,50"/>
			<path class="st1" d="M35.7,17.3l2.1-2.1c0.3-0.3,0.3-0.8,0-1.1l0,0c-0.3-0.3-0.8-0.3-1.1,0c0,0,0,0,0,0l-2.1,2.1
				c-2.4-2.1-5.5-3.4-8.7-3.6v-2.1h2.1c0.4,0,0.8-0.4,0.8-0.8c0,0,0,0,0,0l0,0c0-0.4-0.3-0.8-0.8-0.8c0,0,0,0,0,0h-5.8
				c-0.4,0-0.8,0.4-0.8,0.8l0,0l0,0c0,0.4,0.4,0.8,0.8,0.8l0,0h2.1v2.1c-3.2,0.2-6.3,1.4-8.7,3.6l-2.1-2.1c-0.3-0.3-0.8-0.3-1.1,0
				c0,0,0,0,0,0l0,0c-0.3,0.3-0.3,0.8,0,1.1l2.1,2.1c-5.3,5.9-4.7,14.9,1.2,20.2s14.9,4.7,20.2-1.2C40.5,30.9,40.5,22.7,35.7,17.3
				 M25,39.5c-7,0-12.7-5.7-12.7-12.6c0-3.1,1.1-6,3.1-8.4l0,0c0.4-0.4,0.7-0.8,1.2-1.2l0,0c2.1-1.8,4.7-2.9,7.5-3.1l0,0
				c0.2,0,0.4,0,0.6,0l0,0h0.7l0,0c7,0.4,12.3,6.5,11.8,13.4C36.9,34.2,31.5,39.3,25,39.5"/>
			<path class="st1" d="M25,15.5c-6.2,0-11.3,5.1-11.3,11.3S18.8,38.1,25,38.1c6.2,0,11.3-5.1,11.3-11.3
				C36.3,20.6,31.3,15.5,25,15.5C25,15.5,25,15.5,25,15.5 M25,36.5c-5.3,0-9.7-4.3-9.7-9.7c0-5.3,4.3-9.7,9.7-9.7s9.7,4.3,9.7,9.7
				c0,0,0,0,0,0C34.6,32.2,30.3,36.5,25,36.5"/>
			<path class="st1" d="M32.1,24.1c-0.1-0.2-0.3-0.4-0.5-0.5c-1.6-0.7-3.5,0.1-4.2,1.7c-0.2,0.4-0.5,0.7-0.9,0.8
				c-0.4,0.2-0.8,0.2-1.2,0l0,0c-0.2-0.1-0.4-0.1-0.6,0c-0.4,0.2-0.6,0.6-0.5,1c0,0,0,0,0,0c0.1,0.2,0.2,0.4,0.5,0.5
				c0.8,0.3,1.7,0.3,2.5,0c0.8-0.3,1.5-0.9,1.8-1.7c0.2-0.4,0.5-0.7,0.9-0.8c0.4-0.2,0.8-0.2,1.2,0l0,0c0.2,0.1,0.4,0.1,0.6,0
				C32.1,24.9,32.3,24.5,32.1,24.1"/>
		</g>
	</g>
</g>
</svg>
