<?xml version="1.0" encoding="UTF-8"?>
<svg id="_图层_2" data-name="图层 2" xmlns="http://www.w3.org/2000/svg" xmlns:xlink="http://www.w3.org/1999/xlink" viewBox="0 0 13.315 12.432">
  <defs>
    <clipPath id="clippath">
      <path d="m0,5.41c0,2.99,2.42,5.42,5.41,5.42s5.42-2.43,5.42-5.42S8.4,0,5.41,0,0,2.42,0,5.41Z" style="fill: none; stroke-width: 0px;"/>
    </clipPath>
  </defs>
  <g id="icon-9">
    <path d="m5.42,0C2.43,0,0,2.42,0,5.41s2.43,5.42,5.42,5.42,5.41-2.43,5.41-5.42c.01-2.99-2.42-5.41-5.41-5.41Z" style="fill: #000; stroke-width: 0px;"/>
    <g style="clip-path: url(#clippath);">
      <g>
        <g>
          <path d="m9.56,11.11c-.05-.05-.09-.09-.13-.14-.05-.06-.1-.12-.15-.19-.07-.11-.07-.23.01-.34,0-.01.01-.01.01-.02-.06-.06-.12-.11-.18-.17-.17-.16-.36-.3-.57-.4-.15-.08-.32-.11-.49-.14-.38-.07-.76-.13-1.12-.26-.27-.09-.53-.22-.75-.42-.29-.26-.46-.57-.51-.95-.04-.29,0-.57.09-.85.01-.03.01-.05-.02-.07-.25-.26-.51-.53-.76-.79-.26-.27-.53-.53-.8-.8-.16-.16-.33-.31-.49-.47-.16-.16-.3-.34-.4-.55-.06-.13-.09-.26-.07-.4.03-.18.14-.31.3-.38.29-.12.56-.08.81.1.29.21.55.45.8.71.29.3.56.61.85.92.12.12.24.24.35.37l.02.02c.23-.33.54-.43.93-.3.09-.19.24-.33.45-.38s.4-.01.59.1c.01-.01.02-.03.03-.04.14-.18.32-.28.55-.27.14.01.26.06.37.13.15.1.27.21.39.34.16.17.32.35.48.53.25.29.44.61.56.98.07.21.13.42.2.62.1.3.23.58.4.84.01.01.01.02.02.03h.01c.01-.01.02-.01.03-.02.14-.08.26-.08.39.02.07.05.13.12.19.18l.02.02c.04-.02.07-.04.11-.06.07-.04.13-.03.19.01.33.22.62.48.9.76.09.1.11.22.07.34-.03.12-.1.22-.18.32-.13.17-.29.31-.45.45-.27.22-.51.47-.75.72l-.72.75c-.13.14-.28.27-.45.36-.04.02-.08.04-.12.05-.06.02-.11,0-.15-.05-.18-.19-.35-.37-.53-.56-.12-.13-.24-.26-.36-.38-.08-.08-.08-.16-.01-.25.01.01.02,0,.04-.02Zm-3.26-4.82c-.2-.2-.41-.39-.61-.6-.32-.33-.64-.67-.97-1-.16-.17-.34-.33-.51-.49-.12-.12-.26-.14-.42-.12-.15.03-.22.12-.19.27.02.11.08.21.14.31.11.16.24.3.38.43.16.15.33.28.48.43.3.3.6.6.9.91.32.32.64.65.96.97l.35.35c.03.03.06.07.05.13-.01.07-.05.12-.12.15-.07.02-.12,0-.17-.04-.16-.16-.32-.31-.48-.47-.02-.02-.04-.04-.05-.07l-.01.01c0,.01-.01.03-.01.04-.03.11-.05.22-.05.33-.01.31.08.57.29.8.16.18.36.31.58.41.37.18.76.28,1.16.34.17.03.33.07.49.12.32.11.59.3.84.52.06.06.13.11.19.17l.02-.02c.12-.11.24-.22.35-.34.35-.37.72-.73,1.12-1.06.02-.02.05-.04.07-.06-.01-.01-.01-.02-.02-.02-.15-.21-.27-.44-.36-.68-.1-.26-.18-.52-.27-.78-.09-.29-.22-.56-.4-.81-.14-.19-.29-.36-.45-.53-.12-.13-.25-.25-.39-.35-.09-.06-.18-.12-.28-.15-.15-.04-.26.01-.32.15-.02.04-.03.07-.04.11-.04.11-.17.15-.26.08-.11-.08-.23-.14-.36-.16-.15-.03-.27.03-.33.17-.02.05-.04.1-.05.15-.03.12-.14.17-.25.11-.12-.07-.26-.1-.4-.09-.09.01-.17.05-.23.13-.04.06-.07.13-.09.2m3.98,5.79c.02-.01.03-.02.04-.03.1-.09.21-.18.31-.27.34-.33.69-.66,1.02-1,.28-.29.56-.59.83-.88.05-.06.1-.12.15-.18.02-.02.02-.03,0-.05-.04-.04-.08-.08-.12-.12-.15-.14-.3-.28-.45-.41-.04-.04-.1-.07-.15-.1-.01-.01-.03,0-.04,0-.12.11-.24.22-.35.34-.32.35-.66.68-1.01,1-.28.26-.56.53-.82.82-.04.04-.08.09-.12.13.24.25.47.5.71.75Zm-.78-1.16l.03-.03c.31-.33.64-.63.97-.94.16-.15.32-.31.46-.47.15-.17.31-.34.46-.51,0,0,0-.01.01-.01-.03-.04-.06-.07-.09-.11-.02-.02-.05-.03-.08-.02-.03.02-.06.03-.08.05-.35.27-.69.56-1,.87-.27.27-.53.54-.79.82-.03.03-.05.06-.07.09-.01.01-.01.04,0,.05.06.07.12.13.18.21Z" style="fill: #fff; stroke: #fff; stroke-miterlimit: 10; stroke-width: .11px;"/>
          <path d="m11.01,11.24c0,.14-.07.26-.21.33-.13.07-.26.06-.38-.02-.13-.09-.18-.24-.12-.4.06-.17.18-.28.37-.31.1-.02.19.03.25.11.06.08.09.17.09.29Zm-.25-.03c0-.01-.01-.04-.02-.06-.03-.07-.08-.09-.14-.04-.05.04-.08.09-.09.15-.01.04.01.07.05.1.04.02.08.02.12,0,.06-.04.08-.08.08-.15Z" style="fill: #fff; stroke: #fff; stroke-miterlimit: 10; stroke-width: .11px;"/>
          <path d="m11.83,9.53c.01-.05.04-.1.09-.11.05-.02.11-.01.13.04.07.12.15.25.22.37.03.06.01.12-.05.15s-.13.02-.16-.04c-.03-.06-.07-.11-.1-.17-.04-.06-.07-.12-.1-.18-.02-.01-.02-.04-.03-.06Z" style="fill: #fff; stroke: #fff; stroke-miterlimit: 10; stroke-width: .11px;"/>
          <path d="m12.59,9.82c0,.06-.04.1-.09.12-.06.01-.12-.01-.14-.06-.05-.11-.1-.22-.15-.34-.02-.05-.02-.11.02-.14.04-.04.09-.05.14-.03.02.01.04.03.05.05.05.11.1.23.16.34,0,.02.01.04.01.06Z" style="fill: #fff; stroke: #fff; stroke-miterlimit: 10; stroke-width: .11px;"/>
        </g>
        <path d="m3.95,6.81c-1.35,0-2.45-1.1-2.45-2.45S2.6,1.91,3.95,1.91s2.45,1.1,2.45,2.45c0,.07-.06.14-.14.14s-.14-.06-.14-.14c0-1.2-.98-2.18-2.18-2.18s-2.18.98-2.18,2.18.98,2.18,2.18,2.18c.07,0,.14.06.14.14s-.06.13-.13.13Z" style="fill: #fff; stroke: #fff; stroke-miterlimit: 10; stroke-width: .154px;"/>
        <path d="m3.95,6.03c-.92,0-1.67-.75-1.67-1.67s.75-1.67,1.67-1.67,1.67.75,1.67,1.67c0,.07-.06.13-.13.13s-.13-.06-.13-.13c0-.78-.63-1.41-1.41-1.41s-1.41.63-1.41,1.41.63,1.41,1.41,1.41c.07,0,.13.06.13.13s-.06.13-.13.13Z" style="fill: #fff; stroke: #fff; stroke-miterlimit: 10; stroke-width: .154px;"/>
      </g>
    </g>
  </g>
</svg>